<?xml version="1.0" encoding="utf-8"?>
<!-- Generator: Adobe Illustrator 24.0.0, SVG Export Plug-In . SVG Version: 6.00 Build 0)  -->
<svg version="1.1" id="Layer_1" xmlns="http://www.w3.org/2000/svg" xmlns:xlink="http://www.w3.org/1999/xlink" x="0px" y="0px"
	 viewBox="0 0 2654.2 946.9" style="enable-background:new 0 0 2654.2 946.9;" xml:space="preserve">
<style type="text/css">
	.st0{fill:#FFFFFF;}
</style>
<path class="st0" d="M454.5,491.6H198.6l-48.7,134.5H69.1L284.4,55h85L584,626.1h-80.9L454.5,491.6z M454.5,491.6L326.5,139.2
	L198.6,491.6H454.5z"/>
<path class="st0" d="M1073.4,488.7c-23.7,43.7-58.5,77.6-104.4,101.5c-45.9,23.9-101.1,35.9-165.5,35.9H618.7V44.3h184.8
	C867.9,44.3,923,56,969,79.4c45.9,23.4,80.7,56.9,104.4,100.7c23.7,43.7,35.5,95.3,35.5,154.7C1108.9,393.6,1097,445,1073.4,488.7z
	 M971.9,499.8c40.2-39.1,60.2-94.1,60.2-165.1c0-71-19.9-126.1-59.8-165.5c-39.9-39.3-98.1-59-174.5-59h-104v448.1h104
	C873.7,558.4,931.7,538.9,971.9,499.8z"/>
<path class="st0" d="M1576.1,620.9v5.2h444.7V565h-382.2C1620.7,586.3,1599.8,605,1576.1,620.9z"/>
<path class="st0" d="M1996,331.9v-57.8h-285.3c2.5,18.6,3.8,37.9,3.9,57.8H1996z"/>
<path class="st0" d="M2020.8,44.3h-444.7v4.1c24.3,16.1,45.6,35.1,63.8,57h380.9V44.3z"/>
<path class="st0" d="M2530.7,488.7c-23.7,43.7-58.5,77.6-104.4,101.5c-45.9,23.9-101.1,35.9-165.5,35.9H2076V44.3h184.8
	c64.4,0,119.5,11.7,165.5,35.1c45.9,23.4,80.7,56.9,104.4,100.7c23.7,43.7,35.5,95.3,35.5,154.7
	C2566.2,393.6,2554.4,445,2530.7,488.7z M2429.2,499.8c40.2-39.1,60.2-94.1,60.2-165.1c0-71-19.9-126.1-59.8-165.5
	s-98.1-59-174.5-59h-104v448.1h104C2331,558.4,2389.1,538.9,2429.2,499.8z"/>
<path class="st0" d="M1623,488.7c-23.7,43.7-58.5,77.6-104.4,101.5c-45.9,23.9-101.1,35.9-165.5,35.9h-184.8V44.3h184.8
	c64.4,0,119.5,11.7,165.5,35.1c45.9,23.4,80.7,56.9,104.4,100.7c23.7,43.7,35.5,95.3,35.5,154.7C1658.5,393.6,1646.6,445,1623,488.7
	z M1521.5,499.8c40.2-39.1,60.2-94.1,60.2-165.1c0-71-19.9-126.1-59.8-165.5c-39.9-39.3-98.1-59-174.5-59h-104v448.1h104
	C1423.3,558.4,1481.3,538.9,1521.5,499.8z"/>
<g>
	<path class="st0" d="M196.3,846.1c-6,11-14.7,19.5-26.3,25.4c-11.6,5.9-25.5,8.8-41.9,8.8H83.9V733.7h44.3
		c24.7,0,43.7,6.5,57.1,19.4c13.4,13,20.1,30.9,20.1,53.7C205.3,822,202.3,835.1,196.3,846.1z M174.3,851.3
		c10.8-10.6,16.2-25.4,16.2-44.4c0-19-5.4-33.8-16.2-44.4c-10.8-10.6-26.5-15.9-47.2-15.9H98.6v120.6h28.5
		C147.7,867.2,163.5,861.9,174.3,851.3z"/>
	<path class="st0" d="M329.8,733.7v146.5H315V733.7H329.8z"/>
	<path class="st0" d="M552.8,745c11.5,8.3,19.4,19.6,23.7,33.9h-15.2c-3.7-9.8-10.1-17.8-19-23.9c-8.9-6.1-19.5-9.1-31.7-9.1
		c-10.5,0-20.1,2.5-28.6,7.5c-8.5,5-15.2,12.1-20.1,21.4c-4.9,9.3-7.3,20.1-7.3,32.4c0,12.6,2.5,23.6,7.4,32.8
		c4.9,9.3,11.7,16.4,20.4,21.4c8.7,5,18.5,7.5,29.6,7.5c9.8,0,18.8-2.2,27-6.5c8.2-4.4,14.8-10.7,19.8-19c5.1-8.3,8-18.1,8.8-29.3
		h-60.9v-11h73.6v12.9c-1,12.5-4.5,23.7-10.5,33.7c-6,10-14.1,17.8-24.3,23.6c-10.2,5.8-21.8,8.6-34.8,8.6c-13.9,0-26.2-3.2-37-9.5
		c-10.8-6.3-19.2-15.1-25.2-26.5c-6-11.4-8.9-24.2-8.9-38.7c0-14.4,3-27.3,8.9-38.7c6-11.4,14.3-20.2,25-26.5
		c10.7-6.3,23-9.5,36.9-9.5C527.2,732.5,541.3,736.7,552.8,745z"/>
	<path class="st0" d="M704.9,733.7v146.5h-14.8V733.7H704.9z"/>
	<path class="st0" d="M905.5,733.7v11.8h-41.8v134.7h-14.5V745.6h-41.6v-11.8H905.5z"/>
	<path class="st0" d="M1092.8,844.5h-66.7l-13.3,35.8h-15.6l54-143.2h16.4l54,143.2h-15.8L1092.8,844.5z M1088.4,832.9l-28.9-79
		l-29.3,79H1088.4z"/>
	<path class="st0" d="M1240,868.6h53.2v11.6h-68V733.7h14.8V868.6z"/>
	<path class="st0" d="M1708.7,733.7l-37.8,146.5h-17.5l-36.6-125.5L1580,880.3h-17.5l-37.8-146.5h16.2l30.6,128.5l37-128.5h16.4
		l37,128.7l30.8-128.7H1708.7z"/>
	<path class="st0" d="M1917.8,741.6c10.8,6.4,19.3,15.2,25.5,26.6c6.2,11.4,9.3,24.3,9.3,38.7c0,14.4-3.1,27.3-9.3,38.8
		c-6.2,11.4-14.7,20.3-25.5,26.7c-10.8,6.4-23,9.6-36.6,9.6c-13.6,0-25.8-3.2-36.6-9.6c-10.8-6.4-19.3-15.3-25.5-26.7
		c-6.2-11.4-9.3-24.4-9.3-38.8c0-14.4,3.1-27.3,9.3-38.7c6.2-11.4,14.7-20.2,25.5-26.6c10.8-6.4,23-9.6,36.6-9.6
		C1894.8,732.1,1907,735.3,1917.8,741.6z M1852.4,753.1c-8.5,5-15.2,12.1-20.2,21.4c-4.9,9.3-7.4,20.1-7.4,32.4
		c0,12.3,2.5,23.1,7.4,32.4c4.9,9.3,11.6,16.4,20.2,21.4c8.5,5,18.1,7.5,28.8,7.5c10.7,0,20.3-2.5,28.8-7.5
		c8.5-5,15.2-12.1,20.2-21.4c4.9-9.3,7.4-20.1,7.4-32.4c0-12.3-2.5-23.1-7.4-32.4c-4.9-9.3-11.6-16.4-20.2-21.4
		c-8.5-5-18.1-7.5-28.8-7.5C1870.5,745.6,1860.9,748.1,1852.4,753.1z"/>
	<path class="st0" d="M2140.8,880.3l-40.1-61.1H2077v61.1h-14.8V733.7h44.9c16.5,0,28.8,3.9,36.9,11.6c8.1,7.8,12.2,18.2,12.2,31.4
		c0,12.2-3.4,21.9-10.3,29.1c-6.9,7.2-16.8,11.5-29.8,12.9l41.4,61.5H2140.8z M2077,808.2h29.1c23.6,0,35.3-10.2,35.3-30.6
		c0-20.8-11.8-31.2-35.3-31.2H2077V808.2z"/>
	<path class="st0" d="M2278.4,868.6h53.2v11.6h-68V733.7h14.8V868.6z"/>
	<path class="st0" d="M2547.2,846.1c-6,11-14.7,19.5-26.3,25.4c-11.6,5.9-25.5,8.8-41.9,8.8h-44.3V733.7h44.3
		c24.7,0,43.7,6.5,57.1,19.4c13.4,13,20.1,30.9,20.1,53.7C2556.1,822,2553.1,835.1,2547.2,846.1z M2525.1,851.3
		c10.8-10.6,16.2-25.4,16.2-44.4c0-19-5.4-33.8-16.2-44.4c-10.8-10.6-26.5-15.9-47.2-15.9h-28.5v120.6h28.5
		C2498.6,867.2,2514.3,861.9,2525.1,851.3z"/>
</g>
</svg>
